<?xml version="1.0" encoding="UTF-8"?>
<!DOCTYPE svg PUBLIC "-//W3C//DTD SVG 1.1//EN" "http://www.w3.org/Graphics/SVG/1.1/DTD/svg11.dtd">
<!-- Creator: CorelDRAW 2018 (64-Bit) -->
<svg xmlns="http://www.w3.org/2000/svg" xml:space="preserve" width="192mm" height="42mm" version="1.1" style="shape-rendering:geometricPrecision; text-rendering:geometricPrecision; image-rendering:optimizeQuality; fill-rule:evenodd; clip-rule:evenodd"
viewBox="0 0 19200 4200"
 xmlns:xlink="http://www.w3.org/1999/xlink">
 <defs>
  <style type="text/css">
   <![CDATA[
    .fil0 {fill:#000}
   ]]>
  </style>
 </defs>
 <g id="Слой_x0020_1">
  <metadata id="CorelCorpID_0Corel-Layer"/>
  <g id="_724840416">
   <g id="_923995600">
    <path class="fil0" d="M6380.7 2010.55l0 -1192.69 1735.55 0c56.34,0 142.34,30.55 178.52,51.25 150.42,86.11 263.87,251.71 263.87,434.34l0 1209.74c0,19.63 -5.92,25.55 -25.52,25.55l-1582.41 0c-253.45,0 -413,-69.91 -521.95,-295.18 -30.16,-62.34 -48.06,-143.88 -48.06,-233.01zm-391.35 25.56c0,260.18 172.95,568.98 397.15,692.77 142.63,78.74 219.15,108.05 436.6,108.04l1633.48 -0.03c62.45,-0.33 79,-11.19 113.34,22.82l263.03 281.84c52.69,59.92 150.73,189.49 227.65,189.49 71.29,0 116.42,-0.46 167.87,-61.92 116.25,-138.86 25.52,-261.05 -72.13,-357.7 -35.69,-35.31 -216.25,-218.82 -222.64,-254.12 -4.19,-23.13 -0.72,-90.87 -0.72,-118.56 0.02,-204.01 14.16,-1256.35 -13.32,-1409.38 -44.23,-246.31 -173,-446.67 -374.47,-579.18 -81.06,-53.3 -231.18,-115.7 -360.89,-115.7l-2194.95 0 0 1601.63z"/>
    <path class="fil0" d="M16649.37 596.35l0 2589.86c0,81.35 124.84,153.35 212.7,153.35l51.03 0c92.14,0 221.21,-69.27 221.21,-153.35l0 -1098.99 289.25 0c73.76,0 239.81,150.13 300.02,210.73l623.72 585.16c61.86,47.84 369.73,358.87 445.68,414.17 118.95,86.6 392.79,39.01 406.63,-112.67 8.85,-97.03 -136.12,-183.63 -208.68,-255.94l-195.41 -179.17c-21.59,-21.94 -28.5,-24.23 -50.77,-42.88 -18.84,-15.77 -29.27,-30.07 -47.07,-46.58l-689.12 -621.9c-20.67,-19.19 -30.33,-22.04 -51.32,-42.33 -17.99,-17.4 -28.43,-31.02 -47.49,-46.15 -26.05,-20.7 -33.03,-21.05 -52.3,-49.86l321.23 -317.28c18.14,-16 24.23,-17.04 42.58,-34.03l204.03 -204.61c30.95,-31.35 54.81,-45.78 85.19,-76.56 54.16,-54.86 102.8,-103.09 157.32,-157.68l327.42 -319.6c30.9,-31.1 146.88,-116.4 146.88,-176.65 0,-159.61 -253.07,-206.19 -388.82,-142.3 -72.98,34.36 -561.79,544.72 -629.97,612.99 -119.72,119.88 -232.69,234.33 -353.1,353.51 -107.87,106.77 -237.5,291.82 -423.22,291.82l-212.68 0 0 -1133.06c0,-197.82 -484.94,-200.91 -484.94,0z"/>
    <path class="fil0" d="M11519.29 2325.76l0 -851.93c0,-327.29 181.46,-647.46 493.44,-647.46 347.07,0 513.9,-50.15 706.17,204.43 82.54,109.28 127.58,243.02 127.58,434.52l0 877.48c0,259.47 -125.59,480.67 -330.55,555.01 -127.42,46.21 -538.67,46.21 -666.09,0 -229.01,-83.05 -330.55,-324.01 -330.55,-572.05zm-433.89 -851.93l0 877.49c0,283.4 105.54,537.83 248.84,679.42 93.8,92.7 117.81,135.08 255.93,203.77 104.74,52.08 220.23,96.53 371.51,96.53 276.48,0 555.35,32.8 802.66,-90.78 54.56,-27.26 94.9,-55.1 140.57,-89.25 26.36,-19.72 35.89,-32.3 59.42,-51.24 202.15,-162.71 307.52,-458.21 307.52,-722.9l0 -937.11c0,-397.21 -195.63,-766.25 -555.78,-934.33 -239.37,-111.72 -833.08,-112.46 -1072.12,2.77 -350.09,168.79 -558.55,528.63 -558.55,965.63z"/>
    <path class="fil0" d="M13977.99 1243.82c0,112.17 16.86,217.29 44.44,304.78 37.83,120.02 123.22,228.18 222.67,296.7 370.29,255.09 630.81,179.63 954.5,270.96 467.77,132 362.33,596.53 139.82,712.36 -142.21,74.03 -239.34,76.46 -451.12,76.46 -175.82,0 -351.65,0.1 -527.47,0 -150.1,-0.09 -306.28,20.94 -306.28,221.49 0,101.37 77.32,204.47 178.66,204.47l791.21 0c283.49,0 641.47,-100.67 794.74,-337.24 94.23,-145.45 114.88,-270.05 124.08,-446.56 4.62,-88.75 9.37,-9.66 0.53,-119.72 -22.33,-278.19 -107.78,-482.07 -377.66,-627.16 -534.95,-287.6 -1171.25,-36.1 -1171.25,-573.58 0,-158.04 85.97,-266.49 195.61,-315.28 128.94,-57.38 274.8,-51.06 459.47,-51.06 170.15,0 340.31,-0.04 510.46,0 106.35,0.03 150.14,2.9 213.08,-42.2 155.25,-111.24 82.29,-392.28 -145.02,-392.28l-706.13 0c-268.04,0 -470.93,58.76 -669.7,206.88 -160.97,119.96 -274.64,333.12 -274.64,610.98z"/>
    <path class="fil0" d="M9979.41 3007.3c0,90.12 25.8,172.44 69.94,219.63 113.45,121.28 179.77,104.11 329.92,104.11l0 -2615.42c0,-146.13 -126.98,-281.14 -272.24,-281.14l-127.62 0 0 2572.82z"/>
    <path class="fil0" d="M4883.36 3049.9c0,144.74 129.63,281.14 272.24,281.14 87.9,0 127.62,12.29 127.62,-25.56l0 -2504.67c0,-102.56 -14.5,-195.44 -61.81,-253.32 -105.86,-129.47 -200.07,-113.01 -338.05,-113.01l0 2615.42z"/>
    <path class="fil0" d="M-0 289.65c1.05,47.04 24.48,93.77 47.53,131.31 91.06,148.36 124.86,85.18 141.31,165.19 4.74,23.04 0.99,14.88 11.28,39.83 32.96,79.99 81.93,104.61 137.84,134.59 54.12,29.01 53.34,122.26 124.18,156.77 42.42,20.67 33.5,-3.02 48.86,36.27 19.59,50.11 27.43,136.86 144.09,136.86 70.36,133.16 80.48,51.33 132.82,131.08 54.9,83.65 88.18,61.07 138.25,125.66 55.25,71.26 64.55,29.74 103.8,92 52.03,82.53 82.36,46.39 121.26,74.52 0.87,0.62 53.3,74.07 56.86,79.37 19.48,-9.36 91.27,-14.2 119.49,-16.94 88.01,-8.56 54.16,-15.04 172.39,82.48 65.55,54.05 70.25,45.22 167.53,45.22 67.46,0 142.26,-11.6 199.46,-30.29 34.49,-11.28 39.21,-7.68 47.26,-37.87 -58.44,0 -327.66,-24.2 -358.46,-41.45 -39.47,-22.12 -150.47,-130.86 -181.74,-131.9l-72.35 2.97c30.21,-45.17 57.66,-29.14 68.06,-68.16 -30.61,0 -173.34,12.82 -180.4,-9.6 -4.15,-13.12 26.96,-28.27 46.77,-38.96 25.54,-13.8 44.84,-21.29 74.08,-28.11 -35.1,-47.98 -103.72,10.36 -221.2,-17.04 39.32,-58.8 83.13,-47.64 110.6,-85.2l-201.86 -23.23c33.71,-16.11 69.71,-27.88 108.27,-27.88l0 -17.03c-194.94,0 -139.82,-17.37 -238.21,-25.56l0 -25.57c31.08,-7.25 130.22,-31.41 144.63,-51.11 -91.59,0 -230.11,2.86 -289.26,-25.56 9.13,-34.22 29.64,-38.82 60.55,-50.12 26.34,-9.63 63.46,-24.12 92.59,-26.55l-233.67 -47.15c-41.11,-7.23 -41.96,-13.86 -72.6,-21 3.11,-37.51 13.47,-37.96 71.5,-73.23 26.54,-16.14 76.72,-38.94 107.16,-46.04 -42.19,-57.66 -383.83,-33.82 -433.89,-102.23 9.61,-36.08 30.13,-38.41 87.8,-65.43 26.5,-12.41 85.66,-34.25 116.38,-36.81l0 -17.03c-62.66,-5.22 -165.31,-33.8 -220.15,-52.17 -66.46,-22.25 -143.45,-46.96 -179.71,-101.18 110.32,0 412.36,27.62 552.93,34.14 295.32,13.7 770.97,189.15 1045.17,333.53 40.71,21.43 83.75,45.06 127.51,68.25l130.8 73.48c81.98,51.77 133.13,72.59 194.72,145.79 105.03,124.82 323.55,384.16 -9.3,384.16 -48.83,0 -64.59,-8.52 -119.11,-8.52 6.59,24.7 2.39,11.54 16.84,25.74 69.27,68.03 150.33,127.61 255.41,127.61 54.91,0 190.61,-205.24 70.9,-428.82 -181.4,-338.81 -519.24,-380.35 -749.47,-569.98 -126.94,-104.55 -547.73,-216.63 -735.97,-251.25 -120.02,-22.07 -171.94,-53.98 -278.21,-53.66 -46.65,0.13 -70.69,-1.57 -104.97,-6.22l-312.21 14.95c-67.58,0.94 -135.04,17.08 -204.14,17.08z"/>
    <path class="fil0" d="M961.35 2649.5c93.23,-21.75 134.54,-59.64 289.26,-59.64 395.28,0 387.27,68.15 680.62,68.15 122.99,0 340.05,-47.06 413.42,-97.15 78.28,-53.47 196.92,-220.65 216.13,-303.25 -51.11,27.08 -74.68,50.21 -161.64,93.71 -56.82,28.44 -113.72,52.64 -172.89,82.45 -167.3,84.29 -245.86,79.42 -431.15,79.42 -87.76,0 -192.68,-77.65 -95.78,-189.63 6.77,-7.82 22.86,-26.08 28.26,-31.34l42.75 -25.35c131.68,-57.77 230.92,-103.85 373.08,-137.55 60.74,-14.4 120.34,-63.52 160.1,-103.79 264.53,-267.93 265.79,-289.92 265.79,-773.2 -14.54,20.94 -17.51,47.63 -22.03,71.67l-58 223.05c-33.29,88.57 -74.24,181.44 -125.21,249.46 -76.06,101.52 -91.29,106.55 -208.74,165.83l-258.35 116.14c-209.77,92.81 -361.23,103.27 -431.43,130.26 -55.51,21.35 -74.74,37.74 -119.65,67.6 -93.3,62.02 -168.25,135.78 -247.79,211.91l-49.49 52.67c-25.19,26.15 -78.35,75.2 -87.26,108.58z"/>
    <path class="fil0" d="M663.59 3118.06l0 0zm0 0c-8.72,37.53 -53.89,102.96 -74.96,137.92l-159.56 266.17c-29.87,49.71 -53.52,89.04 -82.95,138.45 -89.3,149.9 -246.96,400.05 -320.6,539.4 27.02,-9.79 110.02,-141.29 129.95,-168.04 16.36,-21.96 27.82,-35.49 43.68,-58.5 56.86,-82.5 105.62,-154.96 161.59,-238.59 14.88,-22.24 23.33,-33.4 36.22,-57.44l135.15 -179.88c52.02,-61.86 67.67,-70.14 117.92,-120.46l75.72 -77.52c11.52,-9.86 13.72,-10.66 23.39,-19.18l287.44 -265.91c99.26,-80.35 265.21,-173.58 382.99,-221.35 56.52,-22.92 239.01,-113.79 290.46,-118.08l0 -17.04c-128.46,-29.96 -346.9,92.38 -458.23,137.51 -122.65,49.73 -160.86,91.83 -255.26,161.84 -40.83,30.27 -71.84,60.89 -109.7,94.59l-173.21 150.28c-1.29,1.2 -3.14,2.91 -4.42,4.1l-45.62 39.51c40.88,-175.72 46.31,-173.96 200.54,-267.75 129.05,-78.47 312.95,-212.09 453.71,-261.27 36.12,-12.62 30.8,-1.72 51.88,-33.25 -188.35,15.69 -508.92,131.36 -659.76,259.42 -15.47,13.13 -23.18,20.39 -37.87,30.24 6.1,-22.84 30.64,-50.19 45.91,-73.3 19.57,-29.61 33.23,-45.31 52.84,-74.89 51.52,-77.71 289.75,-399.27 301.11,-448.17l-148.21 158.28c-95.74,123.96 -235.34,271.26 -350.1,424.68 -90.27,120.67 -111.08,166.3 -187.39,280.91l-126.04 189c-11.9,18.41 -17.95,31.18 -29.24,47.39l-157.94 225.22c-23,30.72 -54.71,61.33 -73.03,88.73 25.21,-6.74 28.45,-12.59 44.06,-32.56l264.35 -323.11c42.47,-44.67 137.29,-169.23 200.63,-216.54l154.55 -100.81z"/>
    <path class="fil0" d="M2679.89 2095.75l2.54 2.53c-0.17,-0.16 -3.38,-1.69 -2.54,-2.53zm178.67 -724.15c0,149.11 -2.88,301.53 -45.64,431.39 -23.74,72.11 -72.28,224.05 -124.52,284.23l42.26 -562.54c1.25,-41.98 7.81,-42.86 9.26,-84.84 6.82,-197.43 -188.7,-446.18 -219.04,-459.37 -0.08,-0.04 -16.31,-16.4 -11.27,6.51l17.16 43.5c27.19,65 43.74,135.13 55.91,208.45 67.03,403.95 3.63,781.09 3.63,1163.51 0,19.51 2.88,9.9 8.5,34.07 35.3,-23.66 52.11,-65.08 70.52,-108.29 19.64,-46.07 34.58,-77.93 53.47,-125.37l204.26 -511.07c94.64,-246.67 30.08,-538.04 60.38,-620.68 96.7,-263.72 248.57,-350.93 300.49,-449.2 -33.65,2.81 -70.04,32.46 -95.31,49.39l-123.9 97.44c-136.92,121.93 -240.31,250.97 -209.76,453.13 7.16,47.37 3.6,100.37 3.6,149.74z"/>
    <path class="fil0" d="M2322.57 834.89c27.02,-19.82 13.31,-21.42 37.6,-107.18 89.31,-315.23 393.57,-754.36 772.66,-440.1 25.66,21.27 48.24,35.09 66.02,61.68l161.65 -42.6c-12.13,-45.49 -216.56,-227.64 -286.63,-258.21 -76.24,-33.25 -124.88,-48.85 -215.09,-40.42 -155.38,14.53 -334.07,158.98 -405.08,276.59 -114.29,189.27 -131.13,325.13 -131.13,550.24z"/>
    <path class="fil0" d="M1327.18 2155.38l250.46 -328.52c21.84,-26.97 27.24,-18.18 30.3,-54.85 -77.34,40.97 -463.06,416.75 -568.74,503.91 -85.14,70.24 -72.93,16.53 -86.35,66.88 35.58,-2.96 20.09,-6.34 56.28,-20.31 22.82,-8.82 34.37,-10.29 59.23,-17.37l368.36 -108.21c240.41,-76.99 352.72,-85.56 573.79,-209.19 128.24,-71.71 169.98,-95.81 275.98,-200.73 55.38,-54.81 89.85,-113.81 125.38,-189.66 18.47,-39.46 29.73,-66.09 43.92,-109.36 13.83,-42.14 26.38,-91.06 2.91,-124.88 -26.16,112.39 -117.63,265.92 -199.59,336.85l-95.66 83.11c-164.52,122.67 -457.32,244.76 -648.02,313.77 -36.63,13.27 -150.49,55.41 -188.25,58.56z"/>
    <path class="fil0" d="M663.59 119.27l0 0zm0 0c47.42,0 192.38,29.65 239.91,40.9 220,52.06 444.62,91.37 633.03,218.03l284.72 243.08c8.14,6.85 14.74,12.53 23.47,19.09 121.59,91.32 235.99,168.96 401.28,168.96l0 -17.04c-128.77,-30.04 -301.22,-169.45 -384.96,-253.44 -44,-44.13 -116.7,-118.37 -169.56,-153.96 -83.05,-55.91 -213.23,-128.71 -312.26,-164.39 -323.47,-116.55 -418.94,-144.87 -765.37,-204.77 -30.89,-5.34 -111.57,-15.73 -145.94,-15.73 3.71,44.57 40.95,78.51 69.32,109.49l43.3 41.84c19.5,18.52 30.46,25.93 50.84,42.79 29.35,24.27 74.21,48.78 113.54,65.23 52.55,21.96 80.82,33.57 139.88,47.34 -19.54,-29.21 -127.01,-110.52 -166.44,-140.02 -22.38,-16.75 -40.56,-26.15 -54.76,-47.4z"/>
    <path class="fil0" d="M3088.25 434.48c25.75,12.37 324.3,92.98 357.33,93.71 12.12,-145.89 493.22,-109.81 594.8,-101.49 46.16,3.77 94.57,16.31 145.36,16.31 -8.73,-7.61 -2.54,-4.6 -19.82,-14.24l-94.28 -33.38c-239.03,-67.89 -238.76,-41.73 -432.83,-69.44 -96.59,-13.8 -505.98,47.61 -550.56,108.53z"/>
    <path class="fil0" d="M1778.08 1209.74c-173.34,0 -217.97,-34.08 -306.27,-34.08 33.87,29.48 493.45,135.59 493.45,51.12 0,-116.51 -1199.64,-669.49 -1242.12,-673.03 23.55,32.18 366.71,189.58 431.1,224.3l426.57 237.35c11.38,6.86 317.93,194.34 197.27,194.34z"/>
    <path class="fil0" d="M2416.15 783.77c62.27,-5.19 90.62,-35.74 186.45,0.74 36.03,13.71 32.13,22.98 60.28,41.86 -2.55,-30.6 -10.52,-40.53 -16.08,-69.1 -44.95,-230.98 87.95,-342.7 101.16,-399.46 -42.71,28.63 -67.23,46.95 -101.19,86.1 -63.86,73.62 -105.01,112.7 -162.22,212.41 -24.72,43.09 -45.04,83.25 -68.4,127.45z"/>
    <path class="fil0" d="M2858.56 340.77c0,189.38 161.64,121.16 161.64,25.55 0,-47.12 -31.42,-98.35 -71.38,-107.4 -42.15,-9.56 -90.26,37.99 -90.26,81.85z"/>
   </g>
  </g>
 </g>
</svg>
