<?xml version="1.0" encoding="UTF-8"?>
<!DOCTYPE svg PUBLIC "-//W3C//DTD SVG 1.1//EN" "http://www.w3.org/Graphics/SVG/1.1/DTD/svg11.dtd">
<!-- Creator: CorelDRAW 2018 (64-Bit) -->
<svg xmlns="http://www.w3.org/2000/svg" xml:space="preserve" width="144mm" height="30mm" version="1.1" style="shape-rendering:geometricPrecision; text-rendering:geometricPrecision; image-rendering:optimizeQuality; fill-rule:evenodd; clip-rule:evenodd"
viewBox="0 0 14400 3000"
 xmlns:xlink="http://www.w3.org/1999/xlink">
 <defs>
  <style type="text/css">
   <![CDATA[
    .fil0 {fill:#1C1B17}
   ]]>
  </style>
 </defs>
 <g id="Слой_x0020_1">
  <metadata id="CorelCorpID_0Corel-Layer"/>
  <g id="_852510544">
   <path class="fil0" d="M1506.07 1633.19l0 -1225.98 1745.65 0c56.67,0 143.17,31.41 179.56,52.69 151.3,88.51 265.41,258.73 265.41,446.46l0 1243.48c0,20.18 -5.96,26.27 -25.67,26.27l-1591.63 0c-254.92,0 -415.4,-71.86 -524.99,-303.42 -30.33,-64.08 -48.33,-147.88 -48.33,-239.5zm-393.64 26.27c0,267.43 173.96,584.85 399.47,712.1 143.46,80.93 220.43,111.06 439.14,111.05l1643 -0.03c62.81,-0.34 79.45,-11.5 113.99,23.45l264.57 289.71c53,61.59 151.61,194.78 228.97,194.78 71.71,0 117.1,-0.48 168.84,-63.65 116.93,-142.73 25.68,-268.34 -72.54,-367.68 -35.9,-36.3 -217.51,-224.93 -223.94,-261.21 -4.21,-23.77 -0.73,-93.41 -0.73,-121.87 0.02,-209.7 14.25,-1291.4 -13.39,-1448.7 -44.49,-253.18 -174,-459.13 -376.65,-595.34 -81.54,-54.79 -232.53,-118.93 -362.99,-118.93l-2207.74 0 0 1646.32z"/>
   <path class="fil0" d="M11834.53 179.53l0 2662.12c0,83.62 125.57,157.62 213.94,157.62l51.33 0c92.68,0 222.49,-71.2 222.49,-157.62l0 -1129.65 290.94 0c74.19,0 241.2,154.31 301.77,216.61l627.35 601.48c62.22,49.17 371.88,368.88 448.27,425.72 119.65,89.02 395.09,40.11 409,-115.81 8.91,-99.73 -136.91,-188.75 -209.89,-263.08l-196.55 -184.17c-21.71,-22.55 -28.66,-24.9 -51.06,-44.08 -18.95,-16.2 -29.44,-30.9 -47.35,-47.87l-693.13 -639.26c-20.8,-19.73 -30.51,-22.65 -51.62,-43.51 -18.09,-17.89 -28.6,-31.88 -47.77,-47.44 -26.2,-21.27 -33.22,-21.63 -52.6,-51.25l323.09 -326.13c18.25,-16.44 24.38,-17.52 42.84,-34.98l205.22 -210.32c31.12,-32.22 55.12,-47.06 85.68,-78.69 54.48,-56.39 103.39,-105.97 158.24,-162.08l329.32 -328.52c31.08,-31.97 147.74,-119.64 147.74,-181.58 0,-164.06 -254.54,-211.94 -391.09,-146.26 -73.4,35.31 -565.06,559.92 -633.63,630.09 -120.42,123.22 -234.05,240.87 -355.16,363.37 -108.5,109.75 -238.88,299.96 -425.68,299.96l-213.93 0 0 -1164.67c0,-203.34 -487.76,-206.52 -487.76,0z"/>
   <path class="fil0" d="M6674.58 1957.19l0 -875.7c0,-336.42 182.52,-665.52 496.31,-665.52 349.09,0 516.89,-51.55 710.28,210.13 83.02,112.33 128.32,249.8 128.32,446.64l0 901.97c0,266.7 -126.31,494.08 -332.47,570.49 -128.16,47.5 -541.81,47.5 -669.97,0 -230.34,-85.37 -332.47,-333.05 -332.47,-588.01zm-436.42 -875.7l0 901.97c0,291.31 106.16,552.84 250.29,698.38 94.35,95.29 118.5,138.85 257.42,209.45 105.35,53.54 221.51,99.23 373.68,99.23 278.08,0 558.58,33.71 807.32,-93.31 54.89,-28.03 95.46,-56.64 141.4,-91.75 26.51,-20.26 36.1,-33.2 59.76,-52.66 203.33,-167.25 309.32,-471 309.32,-743.07l0 -963.26c0,-408.3 -196.77,-787.63 -559.02,-960.4 -240.77,-114.84 -837.94,-115.6 -1078.36,2.85 -352.14,173.49 -561.81,543.38 -561.81,992.57z"/>
   <path class="fil0" d="M9147.6 845.06c0,115.3 16.95,223.35 44.69,313.28 38.06,123.37 123.94,234.55 223.97,304.98 372.45,262.21 634.48,184.65 960.06,278.53 470.5,135.67 364.44,613.17 140.63,732.23 -143.03,76.09 -240.73,78.59 -453.74,78.59 -176.85,0 -353.7,0.1 -530.54,0 -150.98,-0.09 -308.07,21.53 -308.07,227.68 0,104.19 77.77,210.17 179.7,210.17l795.81 0c285.15,0 645.22,-103.48 799.37,-346.65 94.78,-149.51 115.56,-277.59 124.81,-459.02 4.65,-91.23 9.42,-9.93 0.53,-123.06 -22.45,-285.95 -108.41,-495.52 -379.86,-644.66 -538.06,-295.63 -1178.07,-37.11 -1178.07,-589.59 0,-162.45 86.47,-273.92 196.75,-324.07 129.69,-58.98 276.4,-52.48 462.15,-52.48 171.14,0 342.29,-0.04 513.43,0 106.97,0.03 151.01,2.97 214.32,-43.38 156.15,-114.34 82.77,-403.22 -145.87,-403.22l-710.24 0c-269.6,0 -473.67,60.39 -673.59,212.65 -161.92,123.31 -276.24,342.41 -276.24,628.02z"/>
   <path class="fil0" d="M5125.73 2657.75c0,92.63 25.95,177.24 70.35,225.76 114.11,124.66 180.82,107.01 331.84,107.01l0 -2688.4c0,-150.21 -127.72,-288.98 -273.82,-288.98l-128.37 0 0 2644.61z"/>
   <path class="fil0" d="M0.01 2701.54c0,148.77 130.38,288.98 273.82,288.98 88.41,0 128.36,12.63 128.36,-26.27l0 -2574.55c0,-105.42 -14.58,-200.91 -62.16,-260.39 -106.48,-133.09 -201.24,-116.17 -340.02,-116.17l0 2688.4z"/>
  </g>
 </g>
</svg>
