<?xml version="1.0" encoding="UTF-8"?>
<!DOCTYPE svg PUBLIC "-//W3C//DTD SVG 1.1//EN" "http://www.w3.org/Graphics/SVG/1.1/DTD/svg11.dtd">
<!-- Creator: CorelDRAW 2018 (64-Bit) -->
<svg xmlns="http://www.w3.org/2000/svg" xml:space="preserve" width="210mm" height="297mm" version="1.1" style="shape-rendering:geometricPrecision; text-rendering:geometricPrecision; image-rendering:optimizeQuality; fill-rule:evenodd; clip-rule:evenodd"
viewBox="0 0 21000 29700"
 xmlns:xlink="http://www.w3.org/1999/xlink">
 <defs>
  <style type="text/css">
   <![CDATA[
    .fil0 {fill:#1C1B17}
   ]]>
  </style>
 </defs>
 <g id="Слой_x0020_1">
  <metadata id="CorelCorpID_0Corel-Layer"/>
  <path class="fil0" d="M10938.76 14121.88l150.31 40.52c0,0 8.84,-83.28 323.6,-37.14 0,0 -234.3,-101.28 -473.91,-3.38zm-68.14 -72.99c18.13,0 32.82,18.7 32.82,41.77 0,23.08 -14.69,41.78 -32.82,41.78 -18.13,0 -32.83,-18.7 -32.83,-41.78 0,-23.07 14.7,-41.77 32.83,-41.77zm-388.53 504.59c0,0 274.09,47.26 28.3,-195.81 0,0 -330.68,-225.07 -647.2,-245.33l-231.65 -14.63c0,0 15.91,45.01 181.25,73.15 0,0 -183.02,51.76 -30.95,70.9 152.08,19.13 129.97,20.25 129.97,20.25 0,0 -160.03,57.39 -22.98,69.77l79.57 10.13c0,0 -156.5,42.76 -4.42,51.77l61.89 0c0,0 -145.89,28.13 0,45.01l39.79 0c0,0 -115.83,23.64 -1.33,28.14l41.55 0.56c0,0 -105.65,48.95 2.22,41.08l49.07 -2.82c0,0 -129.97,51.21 2.21,41.08l27.4 -0.56c0,0 -80.9,39.94 4.87,28.69l79.57 62.46 150.75 14.63c0,0 -50.4,30.38 -157.38,19.13l-68.97 -56.27 -78.68 9.01c0,0 -19.46,-15.2 -20.78,-34.89 0,0 -57.47,-1.12 -59.24,-39.95 0,0 -34.92,-6.75 -51.28,-43.33 0,0 -49.96,-16.31 -58.8,-56.83 0,0 -29.62,5.63 -52.16,-41.63 0,0 -53.94,10.69 -63.66,-69.78 0,0 -39.35,6.19 -64.1,-69.77 0,0 -72.82,-18.99 -77.37,-93.4 0,0 -60.12,-27.01 -82.22,-110.29 0,0 279.39,-34.88 355.43,4.5 0,0 263.47,42.77 366.92,122.67 103.44,79.9 209.73,85.43 299.73,212.69 89.99,127.25 -1.77,207.06 -1.77,207.06 0,0 -30.06,30.39 -125.55,-57.39zm-427.93 419.75c0,0 -217.5,237.45 -276.73,345.48 0,0 -165.34,254.33 -186.56,267.84 0,0 182.13,-228.45 221.04,-253.21 11.99,-7.63 42.46,-29.37 81.78,-56.59l-76.03 125.8 -216.62 360.12c0,0 106.98,-141.8 160.91,-232.95 53.94,-91.15 260.83,-266.71 260.83,-266.71 64.54,-76.52 310.34,-167.68 310.34,-167.68 -72.5,-5.63 -163.57,48.39 -221.93,72.02 -58.35,23.64 -241.37,193.56 -241.37,193.56l26.09 -85.7c88.24,-61.04 219.41,-148.41 287.34,-166.94 0,0 -252.87,32.64 -348.35,180.06l219.26 -315.1zm654.28 -487.84c0,0 7.96,203.69 -43.32,249.83 0,0 -85.33,113.66 -141.91,123.79 -56.59,10.13 -176.83,66.39 -176.83,66.39 0,0 -97.26,81.03 22.98,110.29l124.67 -7.88c0,0 191,-79.21 210.43,-106.91 0,0 -53.05,124.92 -132.63,145.17 -79.57,20.26 -164.45,34.89 -239.6,14.63 0,0 -207.78,-52.89 -323.6,6.75 0,0 151.19,-183.43 253.75,-195.81 102.56,-12.38 301.5,-115.91 301.5,-115.91 0,0 101.24,-40.51 144.56,-290.34zm-419.97 225.08c-50.4,30.38 -249.34,239.7 -282.93,241.95 -33.6,2.25 380.18,-108.04 418.2,-132.79 38.02,-24.76 144.12,-60.77 198.93,-158.68 54.82,-97.91 40.68,-129.42 40.68,-129.42 0,0 -24.76,142.92 -213.97,235.2 -189.21,92.28 -293.54,114.79 -293.54,114.79l132.63 -171.05zm-384.61 -534.55c584.32,268.02 693.96,358.8 328.9,272.33 274.2,61.31 164.57,-29.47 -328.9,-272.33zm663.11 106.9c-13.26,-6.75 -81.34,-19.13 -204.24,-146.29 -122.9,-127.17 -488.05,-199.2 -571.16,-199.2 0,0 44.21,94.54 179.48,127.18l-110.52 -85.53c0,0 249.33,37.14 362.5,95.66 0,0 65.43,32.63 123.79,93.4 58.35,60.77 176.83,132.79 220.15,114.78zm452.69 -76.53c-18.57,31.51 -103.45,96.78 -136.16,211.57 0,0 15.03,158.67 -18.57,245.32 0,0 -105.22,279.09 -137.05,326.36 -31.82,47.26 53.94,-441.14 -43.32,-627.95 0,0 81.34,73.15 97.26,177.81 0,0 -8.85,268.95 -26.53,316.22 -17.68,47.26 61.89,-84.4 76.92,-191.31 15.03,-106.91 1.77,-247.58 1.77,-247.58 0,0 12.38,-113.66 185.68,-210.44zm34.48 -141.79l-67.2 19.13c0,0 -120.24,-132.8 -236.07,-42.77 -115.82,90.03 -145.88,253.21 -145.88,253.21 0,0 -21.22,-207.07 137.04,-316.23 158.26,-109.16 258.17,37.14 312.11,86.66zm-406.71 208.18c0,0 65.87,-23.07 101.68,18.57 0,0 -42.88,-99.59 39.34,-199.19 0,0 -64.99,32.08 -141.02,180.62z"/>
 </g>
</svg>
